<svg width="current" height="current" viewBox="0 0 40 40" fill="none" xmlns="http://www.w3.org/2000/svg">
<rect x="0.5" y="0.5" width="39" height="39" stroke="black"/>
<path d="M35 26.8166V18.4966C35 11.3466 35 7.77498 32.8033 5.55331C30.6067 3.33331 27.07 3.33331 20 3.33331C12.9283 3.33331 9.39333 3.33331 7.19667 5.55331C5 7.77498 5 11.35 5 18.4966V26.8183C5 31.9783 5 34.56 6.22333 35.6866C6.80667 36.225 7.54333 36.5633 8.32833 36.6533C9.97333 36.8416 11.895 35.1416 15.7367 31.7433C17.4367 30.2416 18.285 29.49 19.2667 29.2933C19.75 29.1933 20.25 29.1933 20.7333 29.2933C21.7167 29.49 22.565 30.2416 24.2633 31.7433C28.105 35.1416 30.0267 36.8416 31.6717 36.6516C32.455 36.5633 33.1933 36.225 33.7767 35.6866C35 34.56 35 31.9783 35 26.8166Z" stroke="#062C8F" stroke-width="2.5"/>
<path d="M25 10H15" stroke="#062C8F" stroke-width="2.5" stroke-linecap="round"/>
</svg>
